<svg width="260" height="64" viewBox="0 0 260 64" fill="none" xmlns="http://www.w3.org/2000/svg">
  <rect x="2" y="2" width="60" height="60" rx="16" fill="url(#gold)" />
  <path d="M24.8 17.5C26.4 17.5 27.7 18.8 27.7 20.4V38.1C27.7 39.5 28.8 40.7 30.2 40.8H32.5C36.2 40.8 39.2 43.8 39.2 47.5V48.8H33.8V47.8C33.8 46.7 32.9 45.8 31.8 45.8H29.8C24.6 45.8 20.3 41.6 20.3 36.4V20.4C20.3 18.8 21.6 17.5 23.2 17.5H24.8Z" fill="#103D32"/>
  <circle cx="40.7" cy="22.6" r="4.2" fill="#103D32"/>
  <path d="M88.48 46V18.32H94.56L108.8 37.28V18.32H115.24V46H109.64L94.92 26.52V46H88.48Z" fill="#103D32"/>
  <path d="M132.474 46.56C129.768 46.56 127.435 46.0267 125.474 44.96C123.542 43.8933 122.048 42.3867 120.994 40.44C119.955 38.4933 119.435 36.2267 119.435 33.64C119.435 31.0533 119.962 28.7867 121.014 26.84C122.08 24.8933 123.588 23.3867 125.534 22.32C127.48 21.2533 129.795 20.72 132.474 20.72C135.152 20.72 137.467 21.2533 139.414 22.32C141.36 23.3867 142.86 24.8933 143.914 26.84C144.98 28.7867 145.514 31.0533 145.514 33.64C145.514 36.2267 144.98 38.4933 143.914 40.44C142.86 42.3867 141.36 43.8933 139.414 44.96C137.48 46.0267 135.167 46.56 132.474 46.56ZM132.474 41.04C134.395 41.04 135.955 40.3933 137.154 39.1C138.352 37.7933 138.952 35.9733 138.952 33.64C138.952 31.28 138.352 29.46 137.154 28.18C135.955 26.8867 134.395 26.24 132.474 26.24C130.512 26.24 128.932 26.8867 127.734 28.18C126.535 29.46 125.935 31.28 125.935 33.64C125.935 35.9733 126.528 37.7933 127.714 39.1C128.912 40.3933 130.499 41.04 132.474 41.04Z" fill="#103D32"/>
  <path d="M158.815 46.56C156.642 46.56 154.702 46.1 152.995 45.18C151.302 44.2467 149.968 42.8933 148.995 41.12C148.022 39.3467 147.535 37.1733 147.535 34.6V21.28H154.055V34.04C154.055 36.1867 154.475 37.7533 155.315 38.74C156.155 39.7267 157.322 40.22 158.815 40.22C160.322 40.22 161.495 39.7267 162.335 38.74C163.175 37.7533 163.595 36.1867 163.595 34.04V21.28H170.115V34.6C170.115 37.1733 169.628 39.3467 168.655 41.12C167.682 42.8933 166.342 44.2467 164.635 45.18C162.942 46.1 161.002 46.56 158.815 46.56Z" fill="#103D32"/>
  <path d="M174.378 46V21.28H185.058C187.272 21.28 189.165 21.6467 190.738 22.38C192.325 23.1133 193.538 24.1667 194.378 25.54C195.232 26.9 195.658 28.5267 195.658 30.42C195.658 32.2867 195.232 33.9 194.378 35.26C193.538 36.5933 192.325 37.62 190.738 38.34C189.165 39.06 187.272 39.42 185.058 39.42H177.978L180.898 36.54V46H174.378ZM189.138 46L182.958 37.04H189.918L196.178 46H189.138ZM180.898 37.26L177.978 34.18H184.698C186.352 34.18 187.592 33.8267 188.418 33.12C189.245 32.4 189.658 31.5 189.658 30.42C189.658 29.3133 189.245 28.4133 188.418 27.72C187.592 27.0267 186.352 26.68 184.698 26.68H177.978L180.898 23.56V37.26Z" fill="#103D32"/>
  <path d="M199.261 46V21.28H209.941C212.154 21.28 214.048 21.6467 215.621 22.38C217.208 23.1133 218.421 24.1667 219.261 25.54C220.114 26.9 220.541 28.5267 220.541 30.42C220.541 32.2867 220.114 33.9 219.261 35.26C218.421 36.5933 217.208 37.62 215.621 38.34C214.048 39.06 212.154 39.42 209.941 39.42H202.861L205.781 36.54V46H199.261ZM214.021 46L207.841 37.04H214.801L221.061 46H214.021ZM205.781 37.26L202.861 34.18H209.581C211.234 34.18 212.474 33.8267 213.301 33.12C214.128 32.4 214.541 31.5 214.541 30.42C214.541 29.3133 214.128 28.4133 213.301 27.72C212.474 27.0267 211.234 26.68 209.581 26.68H202.861L205.781 23.56V37.26Z" fill="#103D32"/>
  <defs>
    <linearGradient id="gold" x1="10" y1="8" x2="54" y2="56" gradientUnits="userSpaceOnUse">
      <stop stop-color="#C79A31" />
      <stop offset="1" stop-color="#E3BF63" />
    </linearGradient>
  </defs>
</svg>
